<?xml version="1.0" encoding="UTF-8"?>
<svg id="Camada_2" data-name="Camada 2" xmlns="http://www.w3.org/2000/svg" viewBox="0 0 436.06 436.06">
  <defs>
    <style>
      .cls-1 {
        fill: #fff;
        stroke-width: .5px;
      }

      .cls-1, .cls-2 {
        stroke: #fff;
        stroke-miterlimit: 10;
      }

      .cls-2 {
        fill: #e22e5a;
      }
    </style>
  </defs>
  <g id="Camada_1-2" data-name="Camada 1">
    <g id="Camada_1-2" data-name="Camada 1-2">
      <circle class="cls-2" cx="218.03" cy="218.03" r="217.53"/>
      <path class="cls-1" d="m141.21,118.25c0,59.78.27,117.26.27,176.84h14.55c.74,3.4.59,3.61-2.54,3.61h-35.13c-3.05,0-3.28-.31-2.44-3.59h15.67c0-60.64,1.5-121.01,1.5-181.65-6.31,0-10.67.02-17.02.02v-3.69c.61-.04,14.63-.04,15.14-.04,15.51.04,15.86.08,31.36.08,1.45,0,1.8.76,2.21,1.84,11.19,30.18,22.37,60.35,33.56,90.53,6.8,18.36,11.64,33.54,18.46,51.87.23.64.41,1.17.84,2.21,1.23-3.46,33.33-99.71,49.37-145.72.49-1.41,1.23-1.23,3.11-1.21,14.42.14,32.86.43,47.28.49h3.15v3.36h-17.35v181.84h17.37v3.46h-66.17v-3.38h19.85c0-59.98.9-119.56.9-179.83-1.15,3.2-2.21,6.21-3.22,9.08-20.22,58.16-38.94,116.04-59.19,174.18-.47,1.35-2.91,2.79-5.2,2.83-2.19.04-2.72-1.07-3.32-2.68-10.53-28.84-21.08-57.69-31.63-86.53-11.37-31.1-19.75-62.01-31.12-93.11-.25-.7.14.29-.31-.82l.04.02Z"/>
    </g>
  </g>
</svg>