<?xml version="1.0" encoding="UTF-8"?>
<svg id="Camada_2" data-name="Camada 2" xmlns="http://www.w3.org/2000/svg" viewBox="0 0 436.06 436.06">
  <defs>
    <style>
      .cls-1 {
        fill: #fff;
        stroke-width: .5px;
      }

      .cls-1, .cls-2 {
        stroke: #fff;
        stroke-miterlimit: 10;
      }

      .cls-2 {
        fill: #e22e5a;
      }
    </style>
  </defs>
  <g id="Camada_1-2" data-name="Camada 1">
    <g id="Camada_1-2" data-name="Camada 1-2">
      <circle class="cls-2" cx="218.03" cy="218.03" r="217.53"/>
      <path class="cls-1" d="m73.82,165.76c0,29.18.13,57.24.13,86.32h7.1c.36,1.66.29,1.76-1.24,1.76h-17.15c-1.49,0-1.6-.15-1.19-1.75h7.65c0-29.6.73-59.07.73-88.67-3.08,0-5.21,0-8.31,0v-1.8c.3-.02,7.14-.02,7.39-.02,7.57.02,7.74.04,15.31.04.71,0,.88.37,1.08.9,5.46,14.73,10.92,29.46,16.38,44.19,3.32,8.96,5.68,16.37,9.01,25.32.11.31.2.57.41,1.08.6-1.69,16.27-48.67,24.1-71.13.24-.69.6-.6,1.52-.59,7.04.07,16.04.21,23.08.24h1.54v1.64h-8.47v88.76h8.48v1.69h-32.3v-1.65h9.69c0-29.28.44-58.36.44-87.78-.56,1.56-1.08,3.03-1.57,4.43-9.87,28.39-19.01,56.64-28.89,85.02-.23.66-1.42,1.36-2.54,1.38-1.07.02-1.33-.52-1.62-1.31-5.14-14.08-10.29-28.16-15.44-42.24-5.55-15.18-9.64-30.27-15.19-45.45-.12-.34.07.14-.15-.4h.02Z"/>
    </g>
  </g>
</svg>