<svg xmlns="http://www.w3.org/2000/svg" height="20" viewBox="0 -960 960 960" width="20"><path d="M446-707h-96.5q-13.8 0-23.65-9.789-9.85-9.79-9.85-23.5Q316-754 325.85-764q9.85-10 23.65-10H446v-96.5q0-13.8 9.789-23.65 9.79-9.85 23.5-9.85Q493-904 503-894.15q10 9.85 10 23.65v96.5h96.5q13.8 0 23.65 9.789 9.85 9.79 9.85 23.5Q643-727 633.15-717q-9.85 10-23.65 10H513v96.5q0 13.8-9.789 23.65-9.79 9.85-23.5 9.85Q466-577 456-586.85q-10-9.85-10-23.65V-707ZM266.788-106q-28.55 0-48.669-20.331Q198-146.662 198-175.212t20.331-48.669Q238.662-244 267.212-244q28.551 0 48.669 20.331Q336-203.338 336-174.788t-20.331 48.669Q295.338-106 266.788-106Zm424 0q-28.551 0-48.669-20.331Q622-146.662 622-175.212t20.331-48.669Q662.662-244 691.212-244q28.551 0 48.669 20.331Q760-203.338 760-174.788t-20.331 48.669Q719.338-106 690.788-106ZM142-790H91.5q-13.8 0-23.65-9.789-9.85-9.79-9.85-23.5Q58-837 67.85-847q9.85-10 23.65-10h71.714q10.786 0 18.036 5.75 7.25 5.75 12.25 14.75l144 332.5h296.059L735-741q5-9 13.15-15 8.149-6 18.11-6 19.12 0 28.68 15 9.56 15 2.06 31.5L696.5-479q-8 19.5-25.25 31.25T633-436H319l-43 74h450.5q13.8 0 23.65 9.789 9.85 9.79 9.85 23.5Q760-315 750.15-305q-9.85 10-23.65 10H280q-40.533 0-60.766-34.75Q199-364.5 219-398l52-89.025L142-790Z"/></svg>