<svg width="25" height="14" viewBox="0 0 25 14" fill="none" xmlns="http://www.w3.org/2000/svg">
<path d="M19.621 13.8462C20.5443 13.8462 21.3302 13.5976 21.9787 13.1004C22.6272 12.6032 22.9514 11.9995 22.9514 11.2893H24.8124V1.30011C24.8124 0.953413 24.6432 0.650054 24.3049 0.390032C23.9665 0.130011 23.5718 0 23.1206 0H6.7952V3.61863H3.83464L-5.72205e-06 7.54063V11.2893H2.0019C2.0019 11.9995 2.32505 12.6032 2.97133 13.1004C3.61764 13.5976 4.40243 13.8462 5.32569 13.8462C6.24898 13.8462 7.03487 13.5976 7.68337 13.1004C8.33188 12.6032 8.65613 11.9995 8.65613 11.2893H16.2972C16.2972 11.9971 16.6204 12.6002 17.2667 13.0986C17.913 13.597 18.6977 13.8462 19.621 13.8462ZM19.6243 12.546C19.1732 12.546 18.7879 12.4233 18.4683 12.1777C18.1487 11.9321 17.989 11.636 17.989 11.2893C17.989 10.9426 18.1487 10.6464 18.4683 10.4009C18.7879 10.1553 19.1732 10.0325 19.6243 10.0325C20.0755 10.0325 20.4608 10.1553 20.7804 10.4009C21.0999 10.6464 21.2597 10.9426 21.2597 11.2893C21.2597 11.636 21.0999 11.9321 20.7804 12.1777C20.4608 12.4233 20.0755 12.546 19.6243 12.546ZM23.1206 9.98917H22.5003C22.1808 9.59913 21.7762 9.28855 21.2867 9.05742C20.7972 8.82629 20.2521 8.71073 19.6514 8.71073C19.0506 8.71073 18.5012 8.8299 18.0031 9.06826C17.5049 9.30661 17.0961 9.61358 16.7765 9.98917H8.48696V1.30011H23.1206V9.98917ZM5.32902 12.546C4.87788 12.546 4.49254 12.4233 4.17299 12.1777C3.85343 11.9321 3.69366 11.636 3.69366 11.2893C3.69366 10.9426 3.85343 10.6464 4.17299 10.4009C4.49254 10.1553 4.87788 10.0325 5.32902 10.0325C5.78015 10.0325 6.1655 10.1553 6.48505 10.4009C6.8046 10.6464 6.96438 10.9426 6.96438 11.2893C6.96438 11.636 6.8046 11.9321 6.48505 12.1777C6.1655 12.4233 5.78015 12.546 5.32902 12.546ZM6.7952 8.12568H1.55077L4.68051 4.91874H6.7952V8.12568Z" fill="black"/>
</svg>
