<svg width="20" height="25" viewBox="0 0 20 25" fill="none" xmlns="http://www.w3.org/2000/svg">
<path d="M1.875 25C1.375 25 0.9375 24.8125 0.5625 24.4375C0.1875 24.0625 0 23.625 0 23.125V6.875C0 6.375 0.1875 5.9375 0.5625 5.5625C0.9375 5.1875 1.375 5 1.875 5H5.3125V4.6875C5.3125 3.375 5.76562 2.26562 6.67188 1.35938C7.57812 0.453125 8.6875 0 10 0C11.3125 0 12.4219 0.453125 13.3281 1.35938C14.2344 2.26562 14.6875 3.375 14.6875 4.6875V5H18.125C18.625 5 19.0625 5.1875 19.4375 5.5625C19.8125 5.9375 20 6.375 20 6.875V23.125C20 23.625 19.8125 24.0625 19.4375 24.4375C19.0625 24.8125 18.625 25 18.125 25H1.875ZM1.875 23.125H18.125V6.875H14.6875V9.6875C14.6875 9.95312 14.5971 10.1758 14.4164 10.3555C14.2357 10.5352 14.0117 10.625 13.7445 10.625C13.4773 10.625 13.2552 10.5352 13.0781 10.3555C12.901 10.1758 12.8125 9.95312 12.8125 9.6875V6.875H7.1875V9.6875C7.1875 9.95312 7.09714 10.1758 6.91641 10.3555C6.73566 10.5352 6.5117 10.625 6.24453 10.625C5.97734 10.625 5.75521 10.5352 5.57812 10.3555C5.40104 10.1758 5.3125 9.95312 5.3125 9.6875V6.875H1.875V23.125ZM7.1875 5H12.8125V4.6875C12.8125 3.89583 12.5417 3.22917 12 2.6875C11.4583 2.14583 10.7917 1.875 10 1.875C9.20833 1.875 8.54167 2.14583 8 2.6875C7.45833 3.22917 7.1875 3.89583 7.1875 4.6875V5Z" fill="white"/>
</svg>
