<svg width="16" height="14" viewBox="0 0 16 14" fill="none" xmlns="http://www.w3.org/2000/svg">
<path d="M12.6524 14C13.2478 14 13.7545 13.7514 14.1727 13.2542C14.5909 12.7571 14.8 12.1534 14.8 11.4431H16V1.45395C16 1.10725 15.8909 0.803893 15.6727 0.543872C15.4545 0.28385 15.2 0.153839 14.9091 0.153839H4.38182V3.77247H2.47273L9.53674e-07 7.69447V11.4431H1.29091C1.29091 12.1534 1.49929 12.7571 1.91604 13.2542C2.3328 13.7514 2.83886 14 3.43422 14C4.02959 14 4.53636 13.7514 4.95455 13.2542C5.37273 12.7571 5.58182 12.1534 5.58182 11.4431H10.5091C10.5091 12.1509 10.7175 12.7541 11.1342 13.2524C11.551 13.7508 12.057 14 12.6524 14ZM12.6545 12.6999C12.3636 12.6999 12.1152 12.5771 11.9091 12.3315C11.703 12.0859 11.6 11.7898 11.6 11.4431C11.6 11.0964 11.703 10.8003 11.9091 10.5547C12.1152 10.3091 12.3636 10.1863 12.6545 10.1863C12.9455 10.1863 13.1939 10.3091 13.4 10.5547C13.6061 10.8003 13.7091 11.0964 13.7091 11.4431C13.7091 11.7898 13.6061 12.0859 13.4 12.3315C13.1939 12.5771 12.9455 12.6999 12.6545 12.6999ZM14.9091 10.143H14.5091C14.303 9.75297 14.0422 9.44239 13.7265 9.21126C13.4109 8.98013 13.0594 8.86456 12.672 8.86456C12.2846 8.86456 11.9303 8.98374 11.6091 9.22209C11.2879 9.46045 11.0242 9.76742 10.8182 10.143H5.47273V1.45395H14.9091V10.143ZM3.43636 12.6999C3.14546 12.6999 2.89697 12.5771 2.69091 12.3315C2.48485 12.0859 2.38182 11.7898 2.38182 11.4431C2.38182 11.0964 2.48485 10.8003 2.69091 10.5547C2.89697 10.3091 3.14546 10.1863 3.43636 10.1863C3.72727 10.1863 3.97576 10.3091 4.18182 10.5547C4.38788 10.8003 4.49091 11.0964 4.49091 11.4431C4.49091 11.7898 4.38788 12.0859 4.18182 12.3315C3.97576 12.5771 3.72727 12.6999 3.43636 12.6999ZM4.38182 8.27952H1L3.01818 5.07258H4.38182V8.27952Z" fill="white"/>
</svg>
