<svg xmlns="http://www.w3.org/2000/svg" height="24" viewBox="0 -960 960 960" width="24"><path d="m480-110.925-60.153-55.691q-108.461-100.231-177-169.577-68.538-69.346-107.576-121.423-39.039-52.077-53.154-95.269Q68-596.077 68-642q0-96.153 66.423-162.076Q200.847-869.999 298-869.999q48.385 0 96 22.001 47.615 22 86 62.769 38.385-40.769 86-62.769 47.615-22.001 96-22.001 97.153 0 163.576 65.923Q891.999-738.153 891.999-642q0 45.923-14.116 89.115-14.115 43.192-53.154 95.269-39.038 52.077-107.384 121.423T540.153-166.616L480-110.925ZM480-228q98-89.385 161-152.077 63-62.692 100-109.192 37-46.5 51-81.808 14-35.308 14-70.923 0-61-40.5-101.5T662-784q-45.385 0-86.577 27.385-41.192 27.384-54.654 66.308h-81.538q-13.846-39.308-54.846-66.501Q343.385-784 298-784q-62.615 0-103.308 40.5Q154-703 154-642q0 35.615 14 70.923t51 81.808q37 46.5 100 109T480-228Zm0-278Z"/></svg>