<svg width="141" height="51" viewBox="0 0 141 51" fill="none" xmlns="http://www.w3.org/2000/svg">
<path d="M140.797 23.6287C135.424 23.6287 130.231 23.6129 124.992 23.6129C124.992 24.8531 124.934 25.884 125.003 27.0531C125.122 29.028 125.337 30.9949 126.104 32.8434C126.837 34.605 128.072 35.6359 130.012 35.9597C133.238 36.5009 135.573 35.9716 137.709 33.3411C138.457 32.4208 139.174 31.4215 139.742 30.3551C140.034 29.8061 140.141 29.731 140.877 29.8969C140.536 31.1924 139.93 32.3418 139.151 33.4003C136.781 36.6431 133.502 37.6542 129.74 37.433C127.427 37.2948 125.28 36.6036 123.408 35.1619C120.846 33.187 119.462 30.4933 119.051 27.2664C118.718 24.6201 118.879 21.9975 119.914 19.517C121.502 15.7016 124.355 13.5253 128.325 12.9131C130.219 12.6208 132.125 12.6484 133.978 13.1975C137.449 14.2283 139.462 16.7009 140.302 20.2398C140.54 21.251 140.624 22.4635 140.797 23.6247V23.6287ZM134.626 22.74C134.626 22.187 134.645 21.6657 134.626 21.1483C134.553 19.359 134.4 17.5817 133.679 15.9188C133.203 14.8247 132.536 13.8808 131.32 13.6359C129.552 13.2764 128.014 13.7465 126.952 15.3185C125.445 17.5461 125.203 20.1292 125.038 22.744H134.626V22.74Z" fill="black" stroke="black" stroke-width="0.5" stroke-miterlimit="10"/>
<path d="M91.5567 13.9124C90.2489 13.9124 89.1444 13.9124 87.9325 13.9124C87.3649 13.9124 87.3303 13.865 87.4416 13.237H95.7754V13.9124C94.8511 13.9124 94.6517 13.9124 93.7581 13.8848C93.3823 13.8729 93.225 14.185 93.0678 14.5562C88.5691 25.4061 78.6322 48.3896 78.3253 48.9939C77.8728 49.8866 76.8296 50.4869 75.867 50.6686C75.2073 50.795 74.5132 50.7437 73.888 50.5896C72.749 50.3092 71.9014 49.6298 71.6061 48.3896C71.1766 46.6004 72.1392 44.8665 73.8075 44.4162C75.587 43.9383 77.2668 44.9218 77.7692 46.7307C77.7922 46.8137 77.7692 46.7386 77.8153 46.9006C78.3982 45.5024 78.9965 44.3333 79.5526 43.0022C80.2506 41.3236 80.8029 39.6686 81.4855 37.9781C81.5584 37.8004 81.7003 37.4963 81.6198 37.3264C77.9802 29.6482 74.3214 21.9778 70.678 14.2995C70.5322 13.9954 70.3597 13.8887 70.0375 13.9045C69.4929 13.9322 68.9483 13.9045 68.4076 13.9164C68.1276 13.9203 67.9243 13.8966 67.9243 13.5214C67.9243 13.1501 68.1199 13.1225 68.4037 13.1225C71.6214 13.1264 74.8353 13.1225 78.053 13.1225C78.8162 13.1225 79.5756 13.1343 80.3388 13.1185C80.6495 13.1106 80.7453 13.2291 80.7415 13.5372C80.7415 13.8374 80.6149 13.9164 80.3465 13.9164C79.1346 13.9085 77.9226 13.9164 76.6072 13.9164C79.2841 19.5605 81.8997 25.0823 84.5959 30.7659C86.9583 25.0902 89.2096 19.5763 91.5644 13.9164L91.5567 13.9124Z" fill="black" stroke="black" stroke-width="0.5" stroke-miterlimit="10"/>
<path d="M57.1475 31.9786C57.0133 32.3618 56.8522 33.0727 56.6912 33.444C55.7247 35.6637 54.2021 36.7618 51.8205 37.2515C51.3487 37.3503 50.8617 37.4016 50.3784 37.4174C49.2892 37.453 48.2039 37.3819 47.1531 37.0422C45.0092 36.3431 43.5096 34.9607 42.9996 32.654C42.5355 30.5488 42.85 28.57 44.2383 26.8677C45.0744 25.8408 46.1674 25.1812 47.364 24.6993C48.6449 24.1819 49.9834 23.8975 51.3526 23.7909C52.0813 23.7356 52.8138 23.7079 53.5425 23.6961C54.6432 23.6803 55.7439 23.6921 56.8484 23.6882C57.1552 23.6882 57.159 23.6882 57.1552 23.3722C57.1514 22.3176 57.1782 21.2591 57.136 20.2084C57.0785 18.8221 56.9481 17.4397 56.4457 16.1363C56.112 15.2752 55.6096 14.6117 54.7927 14.1417C54.2942 13.8533 53.7074 13.7467 53.1398 13.7151C51.1915 13.6005 49.4657 13.9244 47.7398 14.8487C47.6746 14.8842 47.5826 14.9316 47.4829 14.979C47.8089 15.0106 48.0773 14.9751 48.3535 15.0383C49.6267 15.3226 50.6047 16.0178 50.8962 17.3804C51.111 18.3916 50.8693 19.7819 49.8338 20.5284C48.6411 21.3894 46.7005 21.5119 45.5078 20.4454C44.921 19.9201 44.6295 19.2566 44.5758 18.4745C44.4531 16.6655 45.3237 15.4135 46.7542 14.5327C47.7513 13.9205 48.8175 13.4386 49.9604 13.174C51.6556 12.7869 53.366 12.6684 55.0957 12.7909C56.0353 12.858 56.9711 12.9686 57.8532 13.3004C59.8667 14.0548 61.2742 15.4372 61.9223 17.5819C62.2752 18.747 62.4363 19.9399 62.4363 21.1603C62.4363 25.3984 62.4363 29.6325 62.4363 33.8706C62.4363 34.4354 62.4708 34.9962 62.7546 35.5058C62.9041 35.7743 63.1151 35.96 63.4066 36.0311C64.0509 36.1891 64.6492 36.0824 65.2168 35.7151C65.9339 35.249 66.5322 34.6763 66.9042 33.8706C67.0155 33.6336 67.0807 33.6375 67.2379 33.8548C67.5217 34.2418 67.5179 34.2418 67.2571 34.6645C66.2446 36.3194 64.7604 37.1686 62.9041 37.3858C62.5973 37.4214 62.279 37.3858 61.9684 37.3858C61.6462 37.3858 61.3241 37.4253 61.0096 37.3779C60.0891 37.2476 59.1879 37.0382 58.4707 36.3628C57.6653 35.6045 57.2166 34.6724 57.1782 33.5427C57.1629 33.0609 57.1552 32.5751 57.1437 32.0932C57.1437 32.0181 57.136 31.9431 57.136 31.8681C57.1245 31.8681 57.1514 31.9905 57.1399 31.9905L57.1475 31.9786ZM57.1974 26.6465C57.1974 26.6465 57.1744 26.6465 57.1629 26.6465C57.1629 25.9711 57.1629 25.2997 57.1629 24.6242C57.1629 24.4623 57.1322 24.3794 56.9481 24.3833C55.8321 24.4031 54.716 24.3833 53.6 24.4347C52.0007 24.5137 50.7428 25.2997 49.853 26.6386C48.8942 28.0803 48.5184 29.6997 48.7101 31.4454C48.8022 32.2907 48.9709 33.1162 49.3238 33.8943C50.0256 35.4228 51.1647 36.0311 52.7678 35.6914C54.0372 35.4228 54.9768 34.6289 55.6902 33.5625C56.4956 32.3578 56.9213 30.9952 57.0478 29.5456C57.1284 28.5819 57.1475 27.6142 57.1974 26.6505V26.6465Z" fill="black" stroke="black" stroke-width="0.5" stroke-miterlimit="10"/>
<path d="M5.69086 2.65969C5.69086 14.185 5.74072 25.2679 5.74072 36.7538H8.4637C8.60177 37.4094 8.57492 37.4489 7.98814 37.4489C5.79441 37.4489 3.60452 37.4489 1.4108 37.4489C0.839357 37.4489 0.797169 37.3897 0.954411 36.7577H3.88833C3.88833 25.0665 4.16829 13.4267 4.16829 1.73545C2.98706 1.73545 2.17016 1.7394 0.981257 1.7394V1.02845C1.09631 1.02055 3.71958 1.02055 3.81546 1.02055C6.71869 1.02845 6.78389 1.03635 9.68712 1.03635C9.95942 1.03635 10.0246 1.18249 10.1013 1.39183C12.1953 7.20978 14.2893 13.0277 16.3834 18.8457C17.6566 22.3846 18.5617 25.3114 19.8389 28.8464C19.881 28.9688 19.9156 29.0715 19.9961 29.273C20.2262 28.6055 26.2359 10.0496 29.2389 1.17854C29.3309 0.906009 29.469 0.941556 29.8218 0.945506C32.5218 0.973154 35.9735 1.02845 38.6734 1.0403C38.8614 1.0403 39.0454 1.0403 39.264 1.0403V1.68806H36.0156V36.7459H39.2679V37.4134H26.8802V36.7617H30.5965C30.5965 25.1969 30.7653 13.711 30.7653 2.09093C30.5505 2.70709 30.3511 3.2877 30.1632 3.84066C26.3778 15.0539 22.8725 26.2119 19.0833 37.4213C18.9951 37.6819 18.5387 37.9584 18.1092 37.9663C17.6988 37.9742 17.5991 37.7609 17.4879 37.4489C15.5166 31.8877 13.5415 26.3265 11.5664 20.7653C9.43783 14.7696 7.86925 8.80942 5.74072 2.81373C5.6947 2.67944 5.76757 2.86902 5.68319 2.65574L5.69086 2.65969Z" fill="black" stroke="black" stroke-width="0.5" stroke-miterlimit="10"/>
<path d="M111.066 14.5444C111.584 13.9836 112.079 13.4859 112.616 12.9132C112.7 12.8223 112.8 12.7276 112.907 12.692C113.068 12.6407 113.21 12.6762 113.21 12.9092C113.21 15.0539 113.21 17.1986 113.206 19.3433C113.206 19.3789 113.191 19.4184 113.18 19.4697H112.777C112.646 18.976 112.535 18.4823 112.386 18.0004C111.933 16.5548 111.208 15.2949 110.004 14.3746C109.057 13.6518 107.975 13.2805 106.806 13.241C106.154 13.2213 105.482 13.2568 104.846 13.399C103.009 13.8216 101.981 15.3265 102.061 17.2658C102.115 18.5732 102.771 19.5132 103.768 20.1728C104.765 20.8324 105.835 21.3893 106.905 21.9304C108.282 22.6295 109.705 23.2338 110.974 24.1423C112.251 25.0507 113.337 26.1527 113.843 27.6852C114.664 30.1775 114.518 32.5907 112.953 34.771C112.067 36.0033 110.84 36.7498 109.413 37.125C107.588 37.603 105.762 37.5911 103.971 36.9512C102.947 36.5839 102.031 36.0112 101.271 35.1581C100.945 35.5412 100.658 35.8809 100.339 36.2521C100.086 36.5484 99.8523 36.8604 99.58 37.1329C99.4803 37.2317 99.3039 37.2475 99.1581 37.2988C99.1275 37.1843 99.0661 37.0737 99.0661 36.9591C99.0623 34.8934 99.0623 32.8277 99.0661 30.7581C99.0661 30.6593 99.0738 30.5645 99.0815 30.4737C99.4803 30.3828 99.4841 30.3868 99.5839 30.762C99.9712 32.2274 100.466 33.2188 101.471 34.3602C102.564 35.6004 104.006 36.3627 105.617 36.5563C106.717 36.6866 107.845 36.7222 108.911 36.3667C110.783 35.7426 111.86 34.3958 111.945 32.3696C112.014 30.7107 111.343 29.4863 110.085 28.5462C109.003 27.7365 107.787 27.1875 106.575 26.6306C105.245 26.0184 103.898 25.4259 102.679 24.5846C101.613 23.85 100.677 22.9771 100.132 21.7685C98.5714 18.2967 99.5954 13.952 104.04 12.767C106.035 12.2378 107.745 12.1746 109.536 13.3082C109.924 13.553 110.675 14.2324 111.063 14.5365L111.066 14.5444Z" fill="black" stroke="black" stroke-width="0.5" stroke-miterlimit="10"/>
<path d="M73.6578 34.265C73.7803 34.265 73.7803 34.0679 73.6578 34.0679C73.5353 34.0679 73.5353 34.265 73.6578 34.265Z" fill="#1D1D1B"/>
</svg>
