<svg width="203" height="68" viewBox="0 0 203 68" fill="none" xmlns="http://www.w3.org/2000/svg">
<g clip-path="url(#clip0_9_143)">
<path d="M202.742 34.3589C195.925 34.3589 189.337 34.3394 182.69 34.3394C182.69 35.8727 182.617 37.1473 182.704 38.5927C182.855 41.0344 183.128 43.4663 184.101 45.7517C185.03 47.9296 186.597 49.2041 189.059 49.6046C193.151 50.2736 196.115 49.6192 198.825 46.3669C199.774 45.2291 200.684 43.9937 201.404 42.6752C201.774 41.9964 201.91 41.9036 202.844 42.1087C202.411 43.7104 201.642 45.1315 200.655 46.4402C197.648 50.4494 193.487 51.6995 188.714 51.4261C185.78 51.2551 183.055 50.4006 180.68 48.6182C177.43 46.1765 175.673 42.8461 175.153 38.8564C174.729 35.5846 174.934 32.3421 176.247 29.2754C178.262 24.5581 181.882 21.8674 186.918 21.1105C189.322 20.7491 191.74 20.7833 194.091 21.4621C198.494 22.7366 201.049 25.7936 202.114 30.169C202.416 31.4192 202.523 32.9183 202.742 34.354V34.3589ZM194.913 33.2602C194.913 32.5765 194.937 31.9319 194.913 31.2922C194.82 29.0801 194.626 26.8826 193.711 24.8267C193.108 23.474 192.261 22.3069 190.718 22.0041C188.475 21.5598 186.524 22.1409 185.176 24.0844C183.264 26.8386 182.957 30.0323 182.748 33.265H194.913V33.2602Z" fill="black" stroke="#1D1D1B" stroke-width="0.5" stroke-miterlimit="10"/>
<path d="M140.269 22.346C138.61 22.346 137.208 22.346 135.671 22.346C134.951 22.346 134.907 22.2874 135.048 21.5109H145.621V22.346C144.449 22.346 144.196 22.346 143.062 22.3118C142.585 22.2971 142.386 22.6829 142.186 23.142C136.478 36.5564 123.871 64.9723 123.482 65.7195C122.907 66.8231 121.584 67.5654 120.363 67.79C119.526 67.9463 118.645 67.8828 117.852 67.6923C116.407 67.3456 115.331 66.5057 114.957 64.9723C114.412 62.7602 115.633 60.6164 117.75 60.0597C120.007 59.4689 122.139 60.6848 122.776 62.9214C122.805 63.0239 122.776 62.9311 122.834 63.1313C123.574 61.4026 124.333 59.9572 125.039 58.3115C125.924 56.2361 126.625 54.19 127.491 52.1C127.584 51.8802 127.764 51.5042 127.661 51.2942C123.044 41.8011 118.402 32.3177 113.779 22.8245C113.594 22.4485 113.375 22.3167 112.966 22.3362C112.276 22.3704 111.585 22.3362 110.898 22.3509C110.543 22.3557 110.285 22.3264 110.285 21.8625C110.285 21.4035 110.534 21.3693 110.894 21.3693C114.976 21.3742 119.054 21.3693 123.136 21.3693C124.104 21.3693 125.068 21.384 126.036 21.3644C126.43 21.3547 126.552 21.5012 126.547 21.8821C126.547 22.2532 126.387 22.3509 126.046 22.3509C124.508 22.3411 122.971 22.3509 121.302 22.3509C124.698 29.3291 128.017 36.156 131.437 43.183C134.435 36.1657 137.291 29.3486 140.279 22.3509L140.269 22.346Z" fill="black" stroke="#1D1D1B" stroke-width="0.5" stroke-miterlimit="10"/>
<path d="M96.6122 44.6822C96.4419 45.1559 96.2375 46.0349 96.0332 46.4939C94.807 49.2383 92.8752 50.5959 89.8535 51.2014C89.255 51.3235 88.637 51.387 88.0239 51.4065C86.642 51.4505 85.265 51.3626 83.9317 50.9426C81.2117 50.0783 79.3091 48.3691 78.662 45.5173C78.0732 42.9145 78.4722 40.4679 80.2336 38.3632C81.2944 37.0936 82.6812 36.2781 84.1993 35.6823C85.8245 35.0426 87.5227 34.691 89.2599 34.5591C90.1844 34.4908 91.1138 34.4566 92.0383 34.4419C93.4348 34.4224 94.8313 34.437 96.2327 34.4322C96.6219 34.4322 96.6268 34.4322 96.622 34.0415C96.6171 32.7377 96.6511 31.4289 96.5976 30.13C96.5246 28.4159 96.3592 26.7068 95.7218 25.0953C95.2984 24.0307 94.661 23.2103 93.6246 22.6292C92.992 22.2727 92.2475 22.1409 91.5274 22.1018C89.0555 21.9602 86.8658 22.3606 84.6762 23.5033C84.5935 23.5473 84.4767 23.6059 84.3502 23.6645C84.7638 23.7035 85.1044 23.6596 85.4547 23.7377C87.0702 24.0893 88.311 24.9488 88.6808 26.6335C88.9533 27.8837 88.6468 29.6026 87.333 30.5255C85.8197 31.5901 83.3575 31.7415 81.8442 30.423C81.0998 29.7735 80.73 28.9531 80.6618 27.9862C80.5061 25.7497 81.6107 24.2016 83.4257 23.1127C84.6908 22.3558 86.0435 21.76 87.4935 21.4328C89.6443 20.9542 91.8144 20.8077 94.009 20.9591C95.2011 21.0421 96.3884 21.1789 97.5075 21.5891C100.062 22.5218 101.848 24.2309 102.67 26.8826C103.118 28.3231 103.322 29.7979 103.322 31.3068C103.322 36.5466 103.322 41.7815 103.322 47.0213C103.322 47.7196 103.366 48.4131 103.726 49.043C103.916 49.3751 104.184 49.6046 104.553 49.6925C105.371 49.8878 106.13 49.756 106.85 49.3018C107.76 48.7256 108.519 48.0175 108.991 47.0213C109.132 46.7283 109.215 46.7332 109.414 47.0018C109.774 47.4804 109.77 47.4804 109.439 48.0029C108.154 50.049 106.271 51.0989 103.916 51.3675C103.527 51.4114 103.123 51.3675 102.729 51.3675C102.32 51.3675 101.911 51.4163 101.512 51.3577C100.344 51.1965 99.2009 50.9377 98.2909 50.1027C97.2691 49.1651 96.6998 48.0126 96.6511 46.616C96.6317 46.0202 96.6219 45.4196 96.6073 44.8238C96.6073 44.7311 96.5976 44.6383 96.5976 44.5455C96.583 44.5455 96.6171 44.6969 96.6025 44.6969L96.6122 44.6822ZM96.6755 38.0898C96.6755 38.0898 96.6463 38.0898 96.6317 38.0898C96.6317 37.2547 96.6317 36.4246 96.6317 35.5895C96.6317 35.3893 96.5928 35.2867 96.3592 35.2916C94.9432 35.316 93.5272 35.2916 92.1113 35.3551C90.0822 35.4528 88.4862 36.4246 87.3573 38.08C86.1408 39.8624 85.664 41.8646 85.9073 44.023C86.024 45.068 86.2381 46.0886 86.6858 47.0506C87.5763 48.9405 89.0214 49.6925 91.0554 49.2725C92.666 48.9405 93.8581 47.9589 94.7632 46.6404C95.785 45.151 96.3251 43.4663 96.4857 41.6741C96.5879 40.4826 96.6122 39.2862 96.6755 38.0946V38.0898Z" fill="black" stroke="#1D1D1B" stroke-width="0.5" stroke-miterlimit="10"/>
<path d="M31.3266 8.43345C31.3266 22.6829 31.3898 36.3855 31.3898 50.5861H34.8446C35.0198 51.3967 34.9857 51.4456 34.2413 51.4456C31.458 51.4456 28.6795 51.4456 25.8963 51.4456C25.1712 51.4456 25.1177 51.3723 25.3172 50.591H29.0396C29.0396 36.1364 29.3948 21.7453 29.3948 7.29076C27.8961 7.29076 26.8597 7.29564 25.3513 7.29564V6.41665C25.4973 6.40688 28.8255 6.40688 28.9472 6.40688C32.6306 6.41665 32.7134 6.42641 36.3968 6.42641C36.7423 6.42641 36.825 6.60709 36.9224 6.86591C39.5791 14.059 42.2359 21.2521 44.8927 28.4452C46.5082 32.8207 47.6565 36.4392 49.2768 40.8097C49.3304 40.9611 49.3742 41.0881 49.4763 41.3371C49.7683 40.5119 57.3931 17.5701 61.2031 6.60221C61.3199 6.26526 61.4951 6.30921 61.9428 6.3141C65.3683 6.34828 69.7476 6.41665 73.1732 6.4313C73.4117 6.4313 73.6452 6.4313 73.9226 6.4313V7.23216H69.8012V50.5764H73.9274V51.4016H58.2106V50.5959H62.9257C62.9257 36.2976 63.1398 22.0969 63.1398 7.73025C62.8673 8.49205 62.6142 9.20989 62.3758 9.89356C57.5732 23.7573 53.1258 37.5526 48.3183 51.4114C48.2064 51.7337 47.6273 52.0755 47.0823 52.0853C46.5617 52.0951 46.4352 51.8314 46.2941 51.4456C43.793 44.5699 41.2871 37.6942 38.7811 30.8185C36.0806 23.4057 34.0904 16.0368 31.3898 8.6239C31.3315 8.45787 31.4239 8.69226 31.3169 8.42857L31.3266 8.43345Z" fill="black" stroke="#1D1D1B" stroke-width="0.5" stroke-miterlimit="10"/>
<path d="M165.022 23.1273C165.679 22.4339 166.306 21.8186 166.988 21.1105C167.095 20.9982 167.221 20.881 167.357 20.837C167.562 20.7736 167.742 20.8175 167.742 21.1056C167.742 23.7573 167.742 26.4089 167.737 29.0605C167.737 29.1045 167.717 29.1533 167.703 29.2168H167.192C167.026 28.6064 166.885 27.996 166.696 27.4002C166.121 25.6129 165.202 24.0551 163.674 22.9173C162.472 22.0237 161.1 21.5647 159.616 21.5158C158.789 21.4914 157.937 21.5354 157.129 21.7112C154.798 22.2337 153.494 24.0942 153.597 26.4919C153.665 28.1083 154.497 29.2705 155.762 30.086C157.027 30.9015 158.385 31.5901 159.742 32.2591C161.489 33.1234 163.294 33.8706 164.905 34.9937C166.525 36.1169 167.902 37.4793 168.545 39.3741C169.586 42.4554 169.401 45.4391 167.416 48.1347C166.292 49.6583 164.735 50.5812 162.925 51.0452C160.608 51.636 158.292 51.6214 156.02 50.8303C154.721 50.3761 153.558 49.6681 152.594 48.6133C152.181 49.087 151.816 49.5069 151.412 49.966C151.091 50.3322 150.794 50.718 150.448 51.0549C150.322 51.177 150.098 51.1965 149.913 51.26C149.874 51.1184 149.796 50.9817 149.796 50.8401C149.791 48.2861 149.791 45.7321 149.796 43.1733C149.796 43.0512 149.806 42.934 149.816 42.8217C150.322 42.7094 150.327 42.7142 150.453 43.1782C150.945 44.9899 151.572 46.2156 152.847 47.6268C154.234 49.1602 156.064 50.1027 158.107 50.342C159.504 50.5031 160.934 50.5471 162.287 50.1076C164.662 49.336 166.029 47.6708 166.136 45.1657C166.224 43.1147 165.372 41.6009 163.776 40.4386C162.404 39.4375 160.861 38.7588 159.324 38.0702C157.635 37.3133 155.927 36.5808 154.38 35.5407C153.027 34.6324 151.84 33.5532 151.149 32.0589C149.169 27.7665 150.468 22.3948 156.107 20.9298C158.638 20.2755 160.808 20.1973 163.08 21.5988C163.572 21.9016 164.525 22.7415 165.017 23.1176L165.022 23.1273Z" fill="black" stroke="#1D1D1B" stroke-width="0.5" stroke-miterlimit="10"/>
<path d="M117.56 47.5096C117.716 47.5096 117.716 47.2655 117.56 47.2655C117.404 47.2655 117.404 47.5096 117.56 47.5096Z" fill="#1D1D1B"/>
<path d="M23.3076 51.6751C27.2295 44.0572 26.7867 39.3252 25.5605 36.3708C23.5752 31.5754 19.1035 30.4376 18.8991 25.8034C18.7483 22.3899 21.3077 19.6992 23.2249 17.8094C27.8669 13.2386 28.4703 13.2289 29.9544 10.167C30.8789 8.25766 31.3898 5.15676 29.2343 0.0439453" fill="white"/>
<path d="M23.0935 51.5628C25.3659 47.4511 26.6991 42.3041 25.4389 37.7138C24.7674 35.4235 23.4633 33.4116 21.8381 31.6438C14.3349 24.1772 21.9938 18.7958 27.3901 13.4682C30.0761 10.8165 31.1271 7.25171 30.1734 3.57458C29.9057 2.39282 29.5213 1.24036 29.1369 0.0781333L29.3267 -0.00488281C31.3315 3.94083 31.7888 8.69228 28.952 12.3889C27.0349 14.7964 24.5338 16.6716 22.4512 18.8984C18.4271 22.8978 17.595 27.3319 22.169 31.3117C26.6748 35.0865 27.8572 39.2764 26.2807 44.902C25.6384 47.3192 24.5289 49.5313 23.5266 51.7777L23.0935 51.553V51.5628Z" fill="#0D0509"/>
<path d="M13.8872 54.1216C13.5953 52.8862 13.1184 50.0831 14.223 46.8748C14.476 46.1374 15.1134 43.647 17.3761 41.8743C18.7239 40.8195 20.8017 39.3692 20.8017 39.3692C20.8601 39.3643 18.4368 41.2395 15.7703 41.9378C13.3179 42.5824 11.0261 41.0783 9.58093 40.0626" fill="white"/>
<path d="M13.6488 54.1802C12.8995 51.26 13.3082 48.1591 14.476 45.4049C15.0453 44.0181 15.9309 42.7338 17.1085 41.7864C17.6826 41.3127 18.3493 40.9953 18.9526 40.5656C19.5755 40.1505 20.1204 39.7257 20.7968 39.3155C20.7968 39.3155 20.8065 39.3057 20.8455 39.335C20.8844 39.3985 20.8455 39.418 20.8455 39.418C20.8114 39.4571 20.7336 39.5157 20.6946 39.5499C19.0889 40.756 17.2982 41.8206 15.3032 42.1966C13.1574 42.4994 11.1964 41.3323 9.54201 40.1212L9.61986 40.0138C10.4714 40.59 11.3473 41.1369 12.301 41.4983C14.2522 42.3578 16.3007 41.7962 18.1254 40.8928C18.9867 40.4826 19.8334 40.004 20.6168 39.4473L20.6946 39.3887L20.7336 39.3594L20.7481 39.3448L20.753 39.3399C20.7579 39.3399 20.719 39.3594 20.753 39.418C20.7968 39.4473 20.8065 39.4278 20.8017 39.4327C19.6679 40.2726 18.4563 41.2004 17.4053 42.1624C14.2035 44.8971 13.2158 50.0734 14.1111 54.0679L13.6391 54.1802H13.6488Z" fill="#0D0509"/>
<path d="M9.01649 49.1114C8.45691 48.5498 4.21386 43.2856 5.20163 38.6123C5.51791 37.1082 6.61761 34.3882 8.90944 32.4495C10.014 31.5217 10.885 30.4181 11.1575 29.8907C11.9701 28.3427 10.6904 25.2125 10.0043 23.8207" fill="white"/>
<path d="M8.84618 49.2872C6.59814 46.5086 4.69072 43.0707 4.94861 39.3936C5.31842 36.3659 7.14312 33.7046 9.44955 31.8196C10.0627 31.2043 10.7001 30.5451 11.0991 29.7735C11.7706 27.8348 10.6904 25.652 9.92155 23.8793L10.1016 23.7914C10.9045 25.6324 12.009 27.8446 11.3035 29.8712C10.885 30.6867 10.2476 31.3459 9.615 31.9905C7.36695 33.851 5.54711 36.4636 5.24056 39.4278C5.03619 42.9633 6.97768 46.3572 9.20139 48.9502L8.85592 49.2969L8.84618 49.2872Z" fill="#0D0509"/>
<path d="M7.62485 22.722C8.90944 23.8745 10.4471 23.9575 10.7341 23.9379C13.6391 23.7475 14.9772 22.5218 15.566 18.0829" fill="white"/>
<path d="M7.6881 22.6439C9.13814 23.9819 11.4056 24.1772 13.1136 23.225C14.8556 22.1848 15.1913 19.9239 15.4784 18.0682L15.6487 18.0926C15.3811 20.4806 14.5782 23.5229 11.79 23.9038C10.3011 24.2602 8.70021 23.8159 7.55672 22.7952L7.6881 22.6439Z" fill="#0D0509"/>
<path d="M8.62721 8.15511C4.70531 9.35641 3.93163 10.7872 3.49857 12.0715C3.04604 13.4095 3.15795 13.6342 2.60811 15.4898C1.90742 17.868 1.21646 18.4638 0.564436 20.3683C-0.306558 22.9173 0.233555 26.2478 1.82957 26.7263C3.69807 27.283 6.85116 23.7866 8.06277 20.3829C8.92403 17.9608 8.19415 17.2967 9.36683 15.2945C10.4568 13.4388 11.7268 12.9212 12.6805 10.6895C13.1525 9.58592 13.3228 8.58973 13.3909 7.93536" fill="white"/>
<path d="M8.69534 8.38463C6.92415 8.78994 4.9924 9.60057 4.03382 11.2121C3.16769 12.9066 3.1093 14.9038 2.36968 16.6618C1.68359 18.4394 0.535243 20.0313 0.355205 21.9602C0.214094 23.3227 0.287083 24.8462 1.08995 25.9938C2.72003 28.0155 5.47899 24.6411 6.40837 23.2738C7.44967 21.7063 8.27687 19.9336 8.41798 18.0438C8.47151 17.0867 8.7002 16.0856 9.21599 15.2603C9.69771 14.4106 10.3643 13.6879 10.9969 12.9896C12.2961 11.6125 13.0357 9.79102 13.2303 7.91583L13.5369 7.95002C13.3374 9.87404 12.5491 11.7736 11.2159 13.1849C10.5687 13.893 9.92641 14.5864 9.45928 15.4068C8.40825 17.0574 8.87538 19.1523 8.00438 20.8908C7.26477 22.6732 6.1894 24.3286 4.76857 25.6422C1.30405 28.8652 -0.360081 25.3639 0.0583857 21.9309C0.238424 19.9776 1.40137 18.327 2.0826 16.5593C3.16282 13.8539 2.84654 10.5235 5.89745 9.08783C6.74898 8.61415 7.65404 8.29185 8.54936 7.91583L8.69047 8.38463H8.69534Z" fill="#0D0509"/>
<path d="M2.36482 21.2961C2.5108 20.422 2.85141 19.1328 3.7662 17.9168C5.007 16.276 6.28186 16.1247 7.46914 14.7085C8.1601 13.8832 8.93864 12.4866 9.04569 10.0547" fill="white"/>
<path d="M2.20911 21.2717C3.32827 14.8257 8.56883 17.1697 8.88025 10.0547L9.21599 10.0694C8.84619 17.3211 3.57643 15.0357 2.52053 21.3254L2.20911 21.2717Z" fill="#0D0509"/>
<path d="M29.2732 4.0336H24.271V10.6016H28.7039" fill="white"/>
</g>
<defs>
<clipPath id="clip0_9_143">
<rect width="203" height="68" fill="white"/>
</clipPath>
</defs>
</svg>
