<svg width="24" height="24" viewBox="0 0 24 24" fill="none" xmlns="http://www.w3.org/2000/svg">
<path d="M8.75813 17.3805C6.31034 17.3805 4.2387 16.5318 2.54322 14.8345C0.84774 13.1372 0 11.0891 0 8.69024C0 6.29137 0.848656 4.24328 2.54597 2.54597C4.24328 0.848656 6.29703 0 8.70721 0C11.1174 0 13.1655 0.848656 14.8515 2.54597C16.5375 4.24328 17.3805 6.29307 17.3805 8.69533C17.3805 9.66506 17.2221 10.6025 16.9052 11.5078C16.5884 12.413 16.1132 13.2617 15.4795 14.0537L23.6945 22.2008C23.8982 22.3945 24 22.6409 24 22.9401C24 23.2394 23.8982 23.4908 23.6945 23.6945C23.4908 23.8982 23.2394 24 22.9401 24C22.6409 24 22.3945 23.8982 22.2008 23.6945L14.0198 15.5134C13.3409 16.1018 12.5493 16.5601 11.645 16.8883C10.7407 17.2164 9.77838 17.3805 8.75813 17.3805ZM8.72419 15.3437C10.5629 15.3437 12.1259 14.6931 13.413 13.3918C14.7001 12.0905 15.3437 10.5233 15.3437 8.69024C15.3437 6.85714 14.7001 5.28996 13.413 3.98868C12.1259 2.68741 10.5629 2.03678 8.72419 2.03678C6.86658 2.03678 5.2876 2.68741 3.98726 3.98868C2.68694 5.28996 2.03678 6.85714 2.03678 8.69024C2.03678 10.5233 2.68694 12.0905 3.98726 13.3918C5.2876 14.6931 6.86658 15.3437 8.72419 15.3437Z" fill="black"/>
</svg>
