<?xml version="1.0" encoding="UTF-8"?>
<svg id="Camada_1" data-name="Camada 1" xmlns="http://www.w3.org/2000/svg" viewBox="0 0 629.33 558.19">
  <defs>
    <style>
      .cls-1 {
        fill: #fff;
        stroke-width: .5px;
      }

      .cls-1, .cls-2 {
        stroke: #fff;
        stroke-miterlimit: 10;
      }

      .cls-2 {
        fill: #e22e5a;
      }
    </style>
  </defs>
  <g id="Camada_1-2" data-name="Camada 1-2">
    <circle class="cls-2" cx="314.67" cy="279.1" r="217.53"/>
    <path class="cls-1" d="m206.52,161.22c0,84.16.37,165.09.37,248.96h20.48c1.04,4.79.84,5.08-3.58,5.08h-49.46c-4.3,0-4.61-.43-3.43-5.05h22.06c0-85.37,2.11-170.37,2.11-255.74-8.88,0-15.03.03-23.97.03v-5.19c.87-.06,20.59-.06,21.31-.06,21.83.06,22.32.12,44.16.12,2.05,0,2.54,1.07,3.11,2.6,15.75,42.48,31.5,84.97,47.24,127.45,9.58,25.84,16.38,47.21,25.99,73.03.32.89.58,1.64,1.18,3.11,1.73-4.87,46.93-140.37,69.51-205.15.69-1.99,1.73-1.73,4.38-1.7,20.3.2,46.26.61,66.57.69h4.44v4.73h-24.43v256h24.46v4.87h-93.16v-4.76h27.95c0-84.45,1.27-168.32,1.27-253.18-1.62,4.5-3.11,8.74-4.53,12.78-28.47,81.88-54.83,163.36-83.32,245.21-.66,1.9-4.1,3.92-7.33,3.98-3.09.06-3.84-1.5-4.67-3.78-14.82-40.61-29.68-81.22-44.53-121.83-16.01-43.78-27.8-87.3-43.81-131.09-.35-.98.2.4-.43-1.15l.06.03Z"/>
  </g>
</svg>