<?xml version="1.0" encoding="UTF-8"?>
<svg id="Camada_2" data-name="Camada 2" xmlns="http://www.w3.org/2000/svg" viewBox="0 0 436.06 436.06">
  <defs>
    <style>
      .cls-1 {
        fill: #fff;
        stroke-width: .5px;
      }

      .cls-1, .cls-2 {
        stroke: #fff;
        stroke-miterlimit: 10;
      }

      .cls-2 {
        fill: #e22e5a;
      }
    </style>
  </defs>
  <g id="Camada_1-2" data-name="Camada 1">
    <g id="Camada_1-2" data-name="Camada 1-2">
      <circle class="cls-2" cx="218.03" cy="218.03" r="217.53"/>
      <path class="cls-1" d="m127.17,115c0,70.71.32,138.7.32,209.17h17.2c.87,4.02.7,4.26-3,4.26h-41.56c-3.61,0-3.88-.36-2.88-4.24h18.54c0-71.73,1.77-143.14,1.77-214.86-7.46,0-12.62.02-20.14.02v-4.36c.73-.05,17.3-.05,17.91-.05,18.34.05,18.76.1,37.1.1,1.72,0,2.13.9,2.62,2.18,13.23,35.69,26.46,71.39,39.69,107.08,8.04,21.71,13.76,39.67,21.83,61.35.27.75.48,1.38.99,2.62,1.45-4.1,39.42-117.94,58.4-172.36.58-1.67,1.45-1.45,3.68-1.43,17.06.17,38.87.51,55.93.58h3.73v3.97h-20.52v215.08h20.55v4.1h-78.27v-4h23.48c0-70.95,1.07-141.42,1.07-212.71-1.36,3.78-2.62,7.34-3.8,10.73-23.92,68.79-46.06,137.25-70.01,206.02-.56,1.6-3.44,3.3-6.15,3.34-2.59.05-3.22-1.26-3.93-3.17-12.46-34.12-24.93-68.24-37.41-102.35-13.45-36.78-23.36-73.35-36.81-110.13-.29-.82.17.34-.36-.97l.05.02Z"/>
    </g>
  </g>
</svg>